<svg width="520" height="555" viewBox="0 0 520 555" fill="none" xmlns="http://www.w3.org/2000/svg">
<g filter="url(#filter0_d_4_12)">
<rect x="4" y="35" width="512" height="512" fill="white"/>
<rect x="5" y="36" width="510" height="510" stroke="black" stroke-width="2"/>
</g>
<g filter="url(#filter1_d_4_12)">
<rect x="20" y="51" width="480" height="480" fill="white"/>
<rect x="21" y="52" width="478" height="478" stroke="black" stroke-width="2"/>
</g>
<g style="mix-blend-mode:hard-light" filter="url(#filter2_d_4_12)">
<path d="M418.812 386.992C411.521 386.602 404.424 386.081 397.523 385.43C390.753 384.648 384.568 383.607 378.969 382.305C373.37 381.003 368.617 379.31 364.711 377.227C360.935 375.013 358.461 372.279 357.289 369.023L249.281 102.227C247.068 102.357 244.919 103.268 242.836 104.961C241.924 121.107 236.977 134.062 227.992 143.828L232.484 155.352L150.062 362.578C144.854 375.599 128.839 383.737 102.016 386.992C101.234 388.815 100.844 390.443 100.844 391.875C100.844 393.438 101.234 395 102.016 396.562C116.859 396.042 128.773 395.651 137.758 395.391C146.872 395.13 153.122 395 156.508 395C159.503 395 166.273 395.13 176.82 395.391C187.497 395.651 201.951 396.042 220.18 396.562C220.961 395 221.352 393.438 221.352 391.875C221.352 390.443 220.961 388.815 220.18 386.992C209.372 385.951 200.583 384.844 193.812 383.672C187.042 382.37 181.768 381.003 177.992 379.57C174.216 378.138 171.677 376.576 170.375 374.883C169.073 373.06 168.422 371.042 168.422 368.828C168.422 367.396 168.682 365.964 169.203 364.531L197.719 293.047C212.172 292.786 223.826 292.591 232.68 292.461C241.664 292.331 247.849 292.266 251.234 292.266C258.656 292.266 265.232 292.331 270.961 292.461C276.82 292.461 281.833 292.526 286 292.656L314.32 364.531C314.971 366.484 315.297 367.982 315.297 369.023C315.297 372.539 313.474 375.664 309.828 378.398C306.312 381.133 301.951 383.021 296.742 384.062L275.648 386.992C274.867 388.815 274.477 390.443 274.477 391.875C274.477 393.438 274.867 395 275.648 396.562C286.716 396.172 297.914 395.846 309.242 395.586C320.701 395.326 332.419 395.195 344.398 395.195C356.378 395.195 368.487 395.326 380.727 395.586C393.096 395.846 405.792 396.172 418.812 396.562C419.724 394.74 420.18 393.177 420.18 391.875C420.18 391.094 420.049 390.312 419.789 389.531C419.529 388.75 419.203 387.904 418.812 386.992ZM251.234 277.031C232.354 277.031 216.794 276.771 204.555 276.25L241.664 180.547H242.445L279.75 276.641C272.719 276.901 263.214 277.031 251.234 277.031ZM242.055 201.055L216.078 268.633C231.833 269.414 249.151 269.544 268.031 269.023L242.055 201.055ZM424.867 379.766C428.122 387.578 427.992 395.846 424.477 404.57H269.594C266.469 395.586 266.469 387.318 269.594 379.766C283.786 378.984 293.812 377.552 299.672 375.469C305.531 373.255 307.549 369.74 305.727 364.922L280.141 300.273C256.052 299.362 230.271 299.622 202.797 301.055L177.602 365.703C176.82 367.917 177.406 369.935 179.359 371.758C181.443 373.451 184.763 374.818 189.32 375.859C193.878 376.901 199.216 377.747 205.336 378.398C211.456 379.049 218.357 379.505 226.039 379.766C229.294 387.578 229.164 395.846 225.648 404.57C182.94 403.008 139.906 403.008 96.5469 404.57C93.0312 395.846 92.901 387.578 96.1562 379.766C122.979 376.641 138.148 370.781 141.664 362.188L224.086 154.961C223.565 153.919 222.523 151.576 220.961 147.93C219.529 144.154 218.682 141.68 218.422 140.508C228.578 130.221 234.177 116.94 235.219 100.664C246.677 95.0651 260.154 91.875 275.648 91.0938L385.219 362.969C387.693 369.089 391.599 373.19 396.938 375.273C402.276 377.227 411.586 378.724 424.867 379.766Z" fill="black"/>
<path d="M418.812 386.992L419.732 386.598L419.487 386.027L418.866 385.994L418.812 386.992ZM397.523 385.43L397.409 386.423L397.419 386.424L397.43 386.425L397.523 385.43ZM378.969 382.305L378.742 383.279L378.742 383.279L378.969 382.305ZM364.711 377.227L364.205 378.089L364.223 378.099L364.24 378.109L364.711 377.227ZM357.289 369.023L358.23 368.685L358.223 368.666L358.216 368.648L357.289 369.023ZM249.281 102.227L250.208 101.851L249.939 101.186L249.223 101.228L249.281 102.227ZM242.836 104.961L242.205 104.185L241.862 104.463L241.838 104.905L242.836 104.961ZM227.992 143.828L227.256 143.151L226.834 143.61L227.06 144.191L227.992 143.828ZM232.484 155.352L233.414 155.721L233.559 155.355L233.416 154.988L232.484 155.352ZM150.062 362.578L150.991 362.95L150.992 362.948L150.062 362.578ZM102.016 386.992L101.895 385.999L101.323 386.069L101.096 386.598L102.016 386.992ZM102.016 396.562L101.121 397.01L101.409 397.584L102.051 397.562L102.016 396.562ZM137.758 395.391L137.729 394.391L137.729 394.391L137.758 395.391ZM176.82 395.391L176.796 396.39L176.796 396.39L176.82 395.391ZM220.18 396.562L220.151 397.562L220.789 397.58L221.074 397.01L220.18 396.562ZM220.18 386.992L221.099 386.598L220.865 386.054L220.276 385.997L220.18 386.992ZM193.812 383.672L193.624 384.654L193.633 384.656L193.642 384.657L193.812 383.672ZM170.375 374.883L169.561 375.464L169.572 375.478L169.582 375.493L170.375 374.883ZM169.203 364.531L168.274 364.161L168.269 364.175L168.263 364.19L169.203 364.531ZM197.719 293.047L197.701 292.047L197.036 292.059L196.79 292.676L197.719 293.047ZM232.68 292.461L232.665 291.461L232.665 291.461L232.68 292.461ZM270.961 292.461L270.938 293.461L270.95 293.461H270.961V292.461ZM286 292.656L286.93 292.29L286.689 291.677L286.031 291.657L286 292.656ZM314.32 364.531L315.269 364.215L315.261 364.19L315.251 364.165L314.32 364.531ZM309.828 378.398L309.228 377.598L309.221 377.604L309.214 377.609L309.828 378.398ZM296.742 384.062L296.88 385.053L296.909 385.049L296.938 385.043L296.742 384.062ZM275.648 386.992L275.511 386.002L274.952 386.079L274.729 386.598L275.648 386.992ZM275.648 396.562L274.754 397.01L275.041 397.585L275.684 397.562L275.648 396.562ZM309.242 395.586L309.219 394.586L309.219 394.586L309.242 395.586ZM380.727 395.586L380.705 396.586L380.706 396.586L380.727 395.586ZM418.812 396.562L418.783 397.562L419.421 397.581L419.707 397.01L418.812 396.562ZM204.555 276.25L203.622 275.888L203.118 277.19L204.512 277.249L204.555 276.25ZM241.664 180.547V179.547H240.979L240.732 180.185L241.664 180.547ZM242.445 180.547L243.378 180.185L243.13 179.547H242.445V180.547ZM279.75 276.641L279.787 277.64L281.19 277.588L280.682 276.279L279.75 276.641ZM242.055 201.055L242.989 200.698L242.057 198.261L241.121 200.696L242.055 201.055ZM216.078 268.633L215.145 268.274L214.649 269.563L216.029 269.632L216.078 268.633ZM268.031 269.023L268.059 270.023L269.469 269.984L268.965 268.666L268.031 269.023ZM424.867 379.766L425.79 379.381L425.555 378.817L424.945 378.769L424.867 379.766ZM424.477 404.57V405.57H425.152L425.404 404.944L424.477 404.57ZM269.594 404.57L268.649 404.899L268.883 405.57H269.594V404.57ZM269.594 379.766L269.539 378.767L268.91 378.802L268.67 379.383L269.594 379.766ZM299.672 375.469L300.007 376.411L300.016 376.408L300.025 376.404L299.672 375.469ZM305.727 364.922L306.662 364.568L306.659 364.561L306.656 364.554L305.727 364.922ZM280.141 300.273L281.07 299.905L280.83 299.299L280.178 299.274L280.141 300.273ZM202.797 301.055L202.745 300.056L202.1 300.09L201.865 300.692L202.797 301.055ZM177.602 365.703L176.67 365.34L176.664 365.355L176.659 365.37L177.602 365.703ZM179.359 371.758L178.677 372.489L178.702 372.512L178.729 372.534L179.359 371.758ZM189.32 375.859L189.097 376.834L189.32 375.859ZM226.039 379.766L226.962 379.381L226.715 378.788L226.073 378.766L226.039 379.766ZM225.648 404.57L225.612 405.57L226.314 405.595L226.576 404.944L225.648 404.57ZM96.5469 404.57L95.6194 404.944L95.8816 405.595L96.5829 405.57L96.5469 404.57ZM96.1562 379.766L96.0405 378.772L95.4585 378.84L95.2332 379.381L96.1562 379.766ZM141.664 362.188L142.59 362.566L142.593 362.557L141.664 362.188ZM224.086 154.961L225.015 155.331L225.181 154.914L224.98 154.514L224.086 154.961ZM220.961 147.93L220.026 148.284L220.033 148.304L220.042 148.324L220.961 147.93ZM218.422 140.508L217.71 139.805L217.328 140.193L217.446 140.725L218.422 140.508ZM235.219 100.664L234.78 99.7656L234.258 100.021L234.221 100.6L235.219 100.664ZM275.648 91.0938L276.576 90.7199L276.31 90.0591L275.598 90.095L275.648 91.0938ZM385.219 362.969L384.291 363.343L384.292 363.344L385.219 362.969ZM396.938 375.273L396.574 376.205L396.584 376.209L396.594 376.213L396.938 375.273ZM418.866 385.994C411.587 385.604 404.504 385.084 397.617 384.434L397.43 386.425C404.345 387.078 411.455 387.599 418.759 387.991L418.866 385.994ZM397.638 384.436C390.898 383.659 384.751 382.623 379.195 381.331L378.742 383.279C384.384 384.591 390.607 385.638 397.409 386.423L397.638 384.436ZM379.195 381.331C373.658 380.043 368.992 378.376 365.182 376.344L364.24 378.109C368.243 380.243 373.082 381.962 378.742 383.279L379.195 381.331ZM365.217 376.364C361.588 374.237 359.303 371.667 358.23 368.685L356.348 369.362C357.618 372.891 360.282 375.79 364.205 378.089L365.217 376.364ZM358.216 368.648L250.208 101.851L248.354 102.602L356.362 369.399L358.216 368.648ZM249.223 101.228C246.759 101.373 244.416 102.388 242.205 104.185L243.467 105.737C245.422 104.148 247.376 103.34 249.34 103.225L249.223 101.228ZM241.838 104.905C240.936 120.872 236.052 133.591 227.256 143.151L228.728 144.505C237.901 134.534 242.913 121.342 243.834 105.017L241.838 104.905ZM227.06 144.191L231.553 155.715L233.416 154.988L228.924 143.465L227.06 144.191ZM231.555 154.982L149.133 362.209L150.992 362.948L233.414 155.721L231.555 154.982ZM149.134 362.207C144.151 374.665 128.684 382.748 101.895 385.999L102.136 387.985C128.994 384.726 145.558 376.533 150.991 362.95L149.134 362.207ZM101.096 386.598C100.281 388.501 99.8438 390.266 99.8438 391.875H101.844C101.844 390.62 102.188 389.129 102.935 387.386L101.096 386.598ZM99.8438 391.875C99.8438 393.61 100.279 395.325 101.121 397.01L102.91 396.115C102.19 394.675 101.844 393.265 101.844 391.875H99.8438ZM102.051 397.562C116.894 397.041 128.805 396.651 137.787 396.39L137.729 394.391C128.742 394.652 116.825 395.042 101.981 395.563L102.051 397.562ZM137.786 396.39C146.902 396.13 153.139 396 156.508 396V394C153.106 394 146.843 394.131 137.729 394.391L137.786 396.39ZM156.508 396C159.488 396 166.245 396.13 176.796 396.39L176.845 394.391C166.302 394.131 159.517 394 156.508 394V396ZM176.796 396.39C187.471 396.651 201.923 397.041 220.151 397.562L220.208 395.563C201.979 395.042 187.524 394.651 176.845 394.391L176.796 396.39ZM221.074 397.01C221.917 395.325 222.352 393.61 222.352 391.875H220.352C220.352 393.265 220.005 394.675 219.285 396.115L221.074 397.01ZM222.352 391.875C222.352 390.266 221.914 388.501 221.099 386.598L219.261 387.386C220.008 389.129 220.352 390.62 220.352 391.875H222.352ZM220.276 385.997C209.481 384.956 200.719 383.852 193.983 382.687L193.642 384.657C200.447 385.835 209.264 386.945 220.084 387.988L220.276 385.997ZM194.001 382.69C187.253 381.392 182.044 380.038 178.347 378.635L177.638 380.505C181.492 381.967 186.83 383.347 193.624 384.654L194.001 382.69ZM178.347 378.635C174.614 377.219 172.294 375.738 171.168 374.273L169.582 375.493C171.06 377.413 173.818 379.057 177.638 380.505L178.347 378.635ZM171.189 374.302C170.006 372.646 169.422 370.831 169.422 368.828H167.422C167.422 371.253 168.14 373.474 169.561 375.464L171.189 374.302ZM169.422 368.828C169.422 367.52 169.659 366.203 170.143 364.873L168.263 364.19C167.705 365.724 167.422 367.272 167.422 368.828H169.422ZM170.132 364.902L198.648 293.417L196.79 292.676L168.274 364.161L170.132 364.902ZM197.737 294.047C212.189 293.786 223.842 293.591 232.694 293.461L232.665 291.461C223.809 291.591 212.154 291.787 197.701 292.047L197.737 294.047ZM232.694 293.461C241.679 293.331 247.857 293.266 251.234 293.266V291.266C247.841 291.266 241.649 291.331 232.665 291.461L232.694 293.461ZM251.234 293.266C258.651 293.266 265.218 293.331 270.938 293.461L270.984 291.461C265.245 291.331 258.662 291.266 251.234 291.266V293.266ZM270.961 293.461C276.814 293.461 281.816 293.526 285.969 293.656L286.031 291.657C281.851 291.526 276.827 291.461 270.961 291.461V293.461ZM285.07 293.023L313.39 364.898L315.251 364.165L286.93 292.29L285.07 293.023ZM313.372 364.847C314.015 366.778 314.297 368.149 314.297 369.023H316.297C316.297 367.814 315.928 366.191 315.269 364.215L313.372 364.847ZM314.297 369.023C314.297 372.135 312.704 374.992 309.228 377.598L310.428 379.198C314.244 376.337 316.297 372.944 316.297 369.023H314.297ZM309.214 377.609C305.843 380.231 301.631 382.065 296.546 383.082L296.938 385.043C302.27 383.977 306.782 382.034 310.442 379.188L309.214 377.609ZM296.605 383.072L275.511 386.002L275.786 387.983L296.88 385.053L296.605 383.072ZM274.729 386.598C273.914 388.501 273.477 390.266 273.477 391.875H275.477C275.477 390.62 275.821 389.129 276.568 387.386L274.729 386.598ZM273.477 391.875C273.477 393.61 273.912 395.325 274.754 397.01L276.543 396.115C275.823 394.675 275.477 393.265 275.477 391.875H273.477ZM275.684 397.562C286.747 397.171 297.941 396.846 309.265 396.586L309.219 394.586C297.887 394.847 286.685 395.172 275.613 395.563L275.684 397.562ZM309.265 396.586C320.715 396.325 332.427 396.195 344.398 396.195V394.195C332.412 394.195 320.686 394.326 309.219 394.586L309.265 396.586ZM344.398 396.195C356.37 396.195 368.473 396.325 380.705 396.586L380.748 394.586C368.501 394.326 356.385 394.195 344.398 394.195V396.195ZM380.706 396.586C393.072 396.846 405.765 397.172 418.783 397.562L418.842 395.563C405.819 395.172 393.121 394.847 380.748 394.586L380.706 396.586ZM419.707 397.01C420.652 395.119 421.18 393.396 421.18 391.875H419.18C419.18 392.959 418.795 394.361 417.918 396.115L419.707 397.01ZM421.18 391.875C421.18 390.981 421.03 390.093 420.738 389.215L418.84 389.847C419.069 390.532 419.18 391.207 419.18 391.875H421.18ZM420.738 389.215C420.467 388.403 420.131 387.53 419.732 386.598L417.893 387.386C418.275 388.277 418.59 389.097 418.84 389.847L420.738 389.215ZM251.234 276.031C232.362 276.031 216.817 275.771 204.597 275.251L204.512 277.249C216.771 277.771 232.347 278.031 251.234 278.031V276.031ZM205.487 276.612L242.596 180.908L240.732 180.185L203.622 275.888L205.487 276.612ZM241.664 181.547H242.445V179.547H241.664V181.547ZM241.513 180.909L278.818 277.003L280.682 276.279L243.378 180.185L241.513 180.909ZM279.713 275.641C272.7 275.901 263.208 276.031 251.234 276.031V278.031C263.219 278.031 272.738 277.901 279.787 277.64L279.713 275.641ZM241.121 200.696L215.145 268.274L217.012 268.992L242.988 201.413L241.121 200.696ZM216.029 269.632C231.814 270.414 249.158 270.544 268.059 270.023L268.004 268.024C249.144 268.544 231.853 268.414 216.128 267.634L216.029 269.632ZM268.965 268.666L242.989 200.698L241.121 201.412L267.097 269.38L268.965 268.666ZM423.944 380.15C427.087 387.692 426.978 395.687 423.549 404.197L425.404 404.944C429.006 396.006 429.158 387.464 425.79 379.381L423.944 380.15ZM424.477 403.57H269.594V405.57H424.477V403.57ZM270.538 404.242C267.48 395.449 267.502 387.437 270.518 380.148L268.67 379.383C265.436 387.198 265.458 395.723 268.649 404.899L270.538 404.242ZM269.649 380.764C283.846 379.983 294 378.547 300.007 376.411L299.337 374.527C293.625 376.557 283.727 377.986 269.539 378.767L269.649 380.764ZM300.025 376.404C303.059 375.258 305.275 373.713 306.447 371.67C307.644 369.585 307.648 367.174 306.662 364.568L304.791 365.276C305.628 367.487 305.534 369.243 304.713 370.674C303.867 372.147 302.144 373.466 299.318 374.533L300.025 376.404ZM306.656 364.554L281.07 299.905L279.211 300.641L304.797 365.29L306.656 364.554ZM280.178 299.274C256.056 298.361 230.245 298.622 202.745 300.056L202.849 302.053C230.297 300.622 256.048 300.363 280.103 301.273L280.178 299.274ZM201.865 300.692L176.67 365.34L178.533 366.066L203.729 301.418L201.865 300.692ZM176.659 365.37C176.207 366.65 176.137 367.923 176.495 369.156C176.85 370.379 177.604 371.487 178.677 372.489L180.042 371.027C179.162 370.205 178.646 369.393 178.415 368.598C178.187 367.813 178.215 366.97 178.545 366.036L176.659 365.37ZM178.729 372.534C180.989 374.37 184.486 375.78 189.097 376.834L189.543 374.885C185.04 373.855 181.897 372.531 179.99 370.982L178.729 372.534ZM189.097 376.834C193.703 377.887 199.083 378.739 205.23 379.393L205.442 377.404C199.35 376.756 194.052 375.915 189.543 374.885L189.097 376.834ZM205.23 379.393C211.379 380.047 218.304 380.504 226.005 380.765L226.073 378.766C218.409 378.506 211.533 378.052 205.442 377.404L205.23 379.393ZM225.116 380.15C228.259 387.692 228.15 395.687 224.721 404.197L226.576 404.944C230.178 396.006 230.33 387.464 226.962 379.381L225.116 380.15ZM225.685 403.571C182.952 402.008 139.894 402.008 96.5109 403.571L96.5829 405.57C139.918 404.008 182.928 404.008 225.612 405.57L225.685 403.571ZM97.4744 404.197C94.045 395.687 93.9368 387.692 97.0793 380.15L95.2332 379.381C91.8653 387.464 92.0175 396.006 95.6194 404.944L97.4744 404.197ZM96.272 380.759C109.72 379.192 120.313 376.934 128.011 373.96C135.672 371.001 140.672 367.253 142.59 362.566L140.739 361.809C139.14 365.715 134.798 369.194 127.29 372.095C119.819 374.98 109.416 377.214 96.0405 378.772L96.272 380.759ZM142.593 362.557L225.015 155.331L223.157 154.591L140.735 361.818L142.593 362.557ZM224.98 154.514C224.475 153.503 223.446 151.189 221.88 147.536L220.042 148.324C221.601 151.962 222.655 154.335 223.192 155.408L224.98 154.514ZM221.896 147.575C220.457 143.782 219.64 141.379 219.398 140.291L217.446 140.725C217.725 141.981 218.6 144.525 220.026 148.284L221.896 147.575ZM219.133 141.21C229.481 130.73 235.162 117.211 236.217 100.728L234.221 100.6C233.192 116.669 227.675 129.712 217.71 139.805L219.133 141.21ZM235.658 101.563C246.971 96.0343 260.31 92.8684 275.699 92.0925L275.598 90.095C259.997 90.8816 246.383 94.0959 234.78 99.7656L235.658 101.563ZM274.721 91.4676L384.291 363.343L386.146 362.595L276.576 90.7199L274.721 91.4676ZM384.292 363.344C386.852 369.676 390.939 374.006 396.574 376.205L397.301 374.342C392.259 372.374 388.534 368.501 386.146 362.594L384.292 363.344ZM396.594 376.213C402.073 378.217 411.506 379.721 424.789 380.763L424.945 378.769C411.666 377.727 402.479 376.236 397.281 374.334L396.594 376.213Z" fill="black"/>
</g>
<g filter="url(#filter3_d_4_12)">
<path d="M106.331 500C99.1309 500.733 93.9309 501.1 90.7309 501.1C83.7309 501.1 78.1642 499.8 74.0309 497.2C69.8975 494.6 67.8309 489.9 67.8309 483.1V474.8C67.8309 468.2 70.1309 463.767 74.7309 461.5C76.9309 460.367 79.7309 459.8 83.1309 459.8C86.2642 459.8 89.4309 460.333 92.6309 461.4C95.8309 462.4 98.5309 463.733 100.731 465.4C100.731 461.733 99.6642 458.833 97.5309 456.7C95.3975 454.5 91.2975 453.4 85.2309 453.4L85.5309 449.1C91.9309 449.1 96.6309 450.133 99.6309 452.2C102.698 454.2 104.564 456.6 105.231 459.4C105.964 462.2 106.331 465.8 106.331 470.2V500ZM100.731 469.7C97.9975 468.433 95.0642 467.333 91.9309 466.4C88.8642 465.467 86.0309 465 83.4309 465C76.6975 465 73.3309 468.367 73.3309 475.1V483.8C73.3309 488.133 74.8309 491.3 77.8309 493.3C80.8309 495.233 85.0975 496.2 90.6309 496.2C93.4975 496.2 96.8642 495.933 100.731 495.4V469.7ZM135.909 516.7C140.376 515.033 142.609 511.567 142.609 506.3V495.1C141.342 497.233 139.442 498.8 136.909 499.8C134.376 500.733 131.642 501.2 128.709 501.2C122.842 501.2 118.309 499.633 115.109 496.5C111.976 493.3 110.409 488.6 110.409 482.4V449.9H115.809V483.4C115.809 487.667 116.976 490.867 119.309 493C121.642 495.067 124.776 496.1 128.709 496.1C132.842 496.1 136.176 495.067 138.709 493C141.242 490.933 142.509 487.733 142.509 483.4V463.7C142.509 460.5 142.609 458.133 142.809 456.6C143.009 455 143.609 453.533 144.609 452.2C145.676 450.8 147.409 449.733 149.809 449L151.309 452.8C149.042 453.8 147.909 456.133 147.909 459.8V506.1C147.909 510.167 147.109 513.367 145.509 515.7C143.909 518.033 141.209 519.8 137.409 521L135.909 516.7ZM160.856 449.9H166.456L166.156 453.4C169.289 450.467 173.389 449 178.456 449C180.256 449 182.723 449.3 185.856 449.9L184.356 455C182.223 454.333 179.989 454 177.656 454C174.589 454 171.956 454.567 169.756 455.7C167.556 456.833 166.456 458.533 166.456 460.8V500H160.856V449.9ZM196.62 435.7C195.753 435.7 194.953 435.367 194.22 434.7C193.553 433.967 193.22 433.167 193.22 432.3C193.22 431.433 193.553 430.667 194.22 430C194.887 429.333 195.687 429 196.62 429C197.553 429 198.32 429.333 198.92 430C199.587 430.6 199.92 431.367 199.92 432.3C199.92 433.233 199.587 434.033 198.92 434.7C198.253 435.367 197.487 435.7 196.62 435.7ZM193.72 449.9H199.32V500H193.72V449.9ZM216.781 487.3C217.181 490.3 218.681 492.567 221.281 494.1C223.881 495.567 226.781 496.3 229.981 496.3C232.981 496.3 235.714 495.633 238.181 494.3C240.648 492.9 241.881 490.667 241.881 487.6C241.881 485.6 241.281 483.967 240.081 482.7C238.948 481.367 237.514 480.3 235.781 479.5C234.048 478.7 231.714 477.833 228.781 476.9C225.514 475.833 222.848 474.833 220.781 473.9C218.714 472.967 216.914 471.667 215.381 470C213.848 468.267 212.948 466.1 212.681 463.5L212.581 462.3C212.581 460.1 213.181 457.967 214.381 455.9C215.648 453.767 217.548 452.033 220.081 450.7C222.681 449.367 225.914 448.7 229.781 448.7C231.914 448.7 233.781 448.933 235.381 449.4C237.048 449.8 238.348 450.233 239.281 450.7C240.214 451.167 240.781 451.467 240.981 451.6L239.081 456.2C238.881 456.067 238.381 455.8 237.581 455.4C236.848 455 235.781 454.6 234.381 454.2C232.981 453.8 231.448 453.6 229.781 453.6C226.581 453.6 223.848 454.367 221.581 455.9C219.314 457.367 218.181 459.433 218.181 462.1C218.181 464.633 219.214 466.567 221.281 467.9C223.348 469.233 226.514 470.567 230.781 471.9C234.381 473.1 237.281 474.233 239.481 475.3C241.681 476.367 243.548 477.9 245.081 479.9C246.681 481.833 247.481 484.367 247.481 487.5C247.481 491.5 245.981 494.833 242.981 497.5C240.048 500.167 235.714 501.5 229.981 501.5C226.181 501.5 222.881 500.867 220.081 499.6C217.348 498.267 215.248 496.533 213.781 494.4C212.381 492.267 211.614 489.9 211.481 487.3H216.781ZM320.979 500C313.779 500.733 308.579 501.1 305.379 501.1C298.379 501.1 292.813 499.8 288.679 497.2C284.546 494.6 282.479 489.9 282.479 483.1V474.8C282.479 468.2 284.779 463.767 289.379 461.5C291.579 460.367 294.379 459.8 297.779 459.8C300.913 459.8 304.079 460.333 307.279 461.4C310.479 462.4 313.179 463.733 315.379 465.4C315.379 461.733 314.313 458.833 312.179 456.7C310.046 454.5 305.946 453.4 299.879 453.4L300.179 449.1C306.579 449.1 311.279 450.133 314.279 452.2C317.346 454.2 319.213 456.6 319.879 459.4C320.613 462.2 320.979 465.8 320.979 470.2V500ZM315.379 469.7C312.646 468.433 309.713 467.333 306.579 466.4C303.513 465.467 300.679 465 298.079 465C291.346 465 287.979 468.367 287.979 475.1V483.8C287.979 488.133 289.479 491.3 292.479 493.3C295.479 495.233 299.746 496.2 305.279 496.2C308.146 496.2 311.513 495.933 315.379 495.4V469.7ZM327.595 449.9H333.195L332.695 455C334.495 453.067 336.595 451.6 338.995 450.6C341.462 449.6 343.895 449.1 346.295 449.1C352.495 449.1 357.195 450.9 360.395 454.5C363.662 458.1 365.295 462.767 365.295 468.5V482.4C365.295 488.467 363.595 493.133 360.195 496.4C356.795 499.6 352.295 501.2 346.695 501.2C343.828 501.2 341.295 500.8 339.095 500C336.895 499.2 334.928 497.8 333.195 495.8V518.8L327.595 521V449.9ZM359.695 468.1C359.695 463.233 358.395 459.7 355.795 457.5C353.262 455.3 350.228 454.2 346.695 454.2C343.095 454.2 339.995 455.3 337.395 457.5C334.795 459.633 333.395 463 333.195 467.6V483.4C333.195 487.733 334.428 490.933 336.895 493C339.362 495.067 342.628 496.1 346.695 496.1C350.362 496.1 353.428 495.033 355.895 492.9C358.428 490.7 359.695 487.533 359.695 483.4V468.1ZM410.823 500C403.623 500.733 398.423 501.1 395.223 501.1C388.223 501.1 382.656 499.8 378.523 497.2C374.39 494.6 372.323 489.9 372.323 483.1V474.8C372.323 468.2 374.623 463.767 379.223 461.5C381.423 460.367 384.223 459.8 387.623 459.8C390.756 459.8 393.923 460.333 397.123 461.4C400.323 462.4 403.023 463.733 405.223 465.4C405.223 461.733 404.156 458.833 402.023 456.7C399.89 454.5 395.79 453.4 389.723 453.4L390.023 449.1C396.423 449.1 401.123 450.133 404.123 452.2C407.19 454.2 409.056 456.6 409.723 459.4C410.456 462.2 410.823 465.8 410.823 470.2V500ZM405.223 469.7C402.49 468.433 399.556 467.333 396.423 466.4C393.356 465.467 390.523 465 387.923 465C381.19 465 377.823 468.367 377.823 475.1V483.8C377.823 488.133 379.323 491.3 382.323 493.3C385.323 495.233 389.59 496.2 395.123 496.2C397.99 496.2 401.356 495.933 405.223 495.4V469.7ZM420.524 449.9H426.124L425.824 453.4C428.957 450.467 433.057 449 438.124 449C439.924 449 442.39 449.3 445.524 449.9L444.024 455C441.89 454.333 439.657 454 437.324 454C434.257 454 431.624 454.567 429.424 455.7C427.224 456.833 426.124 458.533 426.124 460.8V500H420.524V449.9ZM461.553 501.3C457.819 500.233 455.119 498.533 453.453 496.2C451.786 493.867 450.953 490.733 450.953 486.8V430H456.553V449.9H468.553L466.153 455.2H456.553V486.8C456.553 492.133 458.753 495.533 463.153 497L461.553 501.3Z" fill="black"/>
<path d="M106.331 500L106.432 500.995L107.331 500.903V500H106.331ZM74.0309 497.2L74.5633 496.354L74.0309 497.2ZM74.7309 461.5L75.1729 462.397L75.1809 462.393L75.1888 462.389L74.7309 461.5ZM92.6309 461.4L92.3146 462.349L92.3236 462.352L92.3326 462.354L92.6309 461.4ZM100.731 465.4L100.127 466.197L101.731 467.412V465.4H100.731ZM97.5309 456.7L96.813 457.396L96.8183 457.402L96.8238 457.407L97.5309 456.7ZM85.2309 453.4L84.2333 453.33L84.1587 454.4H85.2309V453.4ZM85.5309 449.1V448.1H84.5982L84.5333 449.03L85.5309 449.1ZM99.6309 452.2L99.0636 453.024L99.074 453.031L99.0846 453.038L99.6309 452.2ZM105.231 459.4L104.258 459.632L104.261 459.643L104.263 459.653L105.231 459.4ZM100.731 469.7H101.731V469.061L101.151 468.793L100.731 469.7ZM91.9309 466.4L91.6397 467.357L91.6454 467.358L91.9309 466.4ZM77.8309 493.3L77.2762 494.132L77.2826 494.136L77.2892 494.141L77.8309 493.3ZM100.731 495.4L100.867 496.391L101.731 496.272V495.4H100.731ZM106.23 499.005C99.0321 499.738 93.8759 500.1 90.7309 500.1V502.1C93.9859 502.1 99.2297 501.728 106.432 500.995L106.23 499.005ZM90.7309 500.1C83.8417 500.1 78.4823 498.819 74.5633 496.354L73.4984 498.046C77.8461 500.781 83.62 502.1 90.7309 502.1V500.1ZM74.5633 496.354C70.8278 494.004 68.8309 489.705 68.8309 483.1H66.8309C66.8309 490.095 68.9672 495.196 73.4984 498.046L74.5633 496.354ZM68.8309 483.1V474.8H66.8309V483.1H68.8309ZM68.8309 474.8C68.8309 468.451 71.0173 464.445 75.1729 462.397L74.2889 460.603C69.2445 463.089 66.8309 467.949 66.8309 474.8H68.8309ZM75.1888 462.389C77.2043 461.351 79.8337 460.8 83.1309 460.8V458.8C79.628 458.8 76.6574 459.383 74.2729 460.611L75.1888 462.389ZM83.1309 460.8C86.1488 460.8 89.2088 461.313 92.3146 462.349L92.9471 460.451C89.6529 459.353 86.3796 458.8 83.1309 458.8V460.8ZM92.3326 462.354C95.4453 463.327 98.0364 464.613 100.127 466.197L101.335 464.603C99.0253 462.853 96.2164 461.473 92.9291 460.446L92.3326 462.354ZM101.731 465.4C101.731 461.529 100.598 458.353 98.238 455.993L96.8238 457.407C98.7305 459.314 99.7309 461.938 99.7309 465.4H101.731ZM98.2488 456.004C95.8109 453.49 91.3359 452.4 85.2309 452.4V454.4C91.2592 454.4 94.9842 455.51 96.813 457.396L98.2488 456.004ZM86.2284 453.47L86.5284 449.17L84.5333 449.03L84.2333 453.33L86.2284 453.47ZM85.5309 450.1C91.8634 450.1 96.3149 451.13 99.0636 453.024L100.198 451.376C96.9469 449.137 91.9984 448.1 85.5309 448.1V450.1ZM99.0846 453.038C101.998 454.937 103.666 457.143 104.258 459.632L106.204 459.168C105.463 456.057 103.398 453.463 100.177 451.362L99.0846 453.038ZM104.263 459.653C104.967 462.34 105.331 465.846 105.331 470.2H107.331C107.331 465.754 106.961 462.06 106.198 459.147L104.263 459.653ZM105.331 470.2V500H107.331V470.2H105.331ZM101.151 468.793C98.3708 467.504 95.392 466.388 92.2163 465.442L91.6454 467.358C94.7364 468.279 97.6243 469.363 100.31 470.607L101.151 468.793ZM92.222 465.443C89.082 464.488 86.1493 464 83.4309 464V466C85.9124 466 88.6464 466.446 91.6397 467.357L92.222 465.443ZM83.4309 464C79.91 464 77.0858 464.881 75.1488 466.818C73.2117 468.755 72.3309 471.579 72.3309 475.1H74.3309C74.3309 471.887 75.1333 469.662 76.563 468.232C77.9926 466.802 80.2183 466 83.4309 466V464ZM72.3309 475.1V483.8H74.3309V475.1H72.3309ZM72.3309 483.8C72.3309 488.39 73.9391 491.907 77.2762 494.132L78.3856 492.468C75.7226 490.693 74.3309 487.876 74.3309 483.8H72.3309ZM77.2892 494.141C80.5167 496.221 85.003 497.2 90.6309 497.2V495.2C85.1921 495.2 81.145 494.246 78.3726 492.459L77.2892 494.141ZM90.6309 497.2C93.5562 497.2 96.9705 496.928 100.867 496.391L100.594 494.409C96.7579 494.939 93.4389 495.2 90.6309 495.2V497.2ZM101.731 495.4V469.7H99.7309V495.4H101.731ZM135.909 516.7L135.559 515.763L134.642 516.105L134.965 517.029L135.909 516.7ZM142.609 495.1H143.609V491.457L141.749 494.589L142.609 495.1ZM136.909 499.8L137.255 500.738L137.265 500.734L137.276 500.73L136.909 499.8ZM115.109 496.5L114.394 497.2L114.402 497.207L114.409 497.215L115.109 496.5ZM110.409 449.9V448.9H109.409V449.9H110.409ZM115.809 449.9H116.809V448.9H115.809V449.9ZM119.309 493L118.634 493.738L118.64 493.743L118.646 493.749L119.309 493ZM138.709 493L139.341 493.775L139.341 493.775L138.709 493ZM142.809 456.6L143.801 456.729L143.801 456.724L142.809 456.6ZM144.609 452.2L143.814 451.594L143.809 451.6L144.609 452.2ZM149.809 449L150.739 448.633L150.4 447.774L149.517 448.044L149.809 449ZM151.309 452.8L151.713 453.715L152.592 453.327L152.239 452.433L151.309 452.8ZM145.509 515.7L144.684 515.134L144.684 515.134L145.509 515.7ZM137.409 521L136.465 521.329L136.784 522.246L137.71 521.954L137.409 521ZM136.259 517.637C138.661 516.74 140.524 515.334 141.775 513.392C143.021 511.457 143.609 509.073 143.609 506.3H141.609C141.609 508.794 141.081 510.776 140.093 512.308C139.111 513.833 137.623 514.993 135.559 515.763L136.259 517.637ZM143.609 506.3V495.1H141.609V506.3H143.609ZM141.749 494.589C140.607 496.513 138.89 497.943 136.542 498.87L137.276 500.73C139.994 499.657 142.078 497.953 143.469 495.611L141.749 494.589ZM136.563 498.862C134.15 499.751 131.535 500.2 128.709 500.2V502.2C131.75 502.2 134.601 501.716 137.255 500.738L136.563 498.862ZM128.709 500.2C123.02 500.2 118.769 498.684 115.809 495.785L114.409 497.215C117.849 500.582 122.665 502.2 128.709 502.2V500.2ZM115.823 495.8C112.934 492.849 111.409 488.441 111.409 482.4H109.409C109.409 488.759 111.017 493.751 114.394 497.2L115.823 495.8ZM111.409 482.4V449.9H109.409V482.4H111.409ZM110.409 450.9H115.809V448.9H110.409V450.9ZM114.809 449.9V483.4H116.809V449.9H114.809ZM114.809 483.4C114.809 487.845 116.029 491.356 118.634 493.738L119.984 492.262C117.923 490.378 116.809 487.488 116.809 483.4H114.809ZM118.646 493.749C121.206 496.016 124.598 497.1 128.709 497.1V495.1C124.954 495.1 122.078 494.117 119.972 492.251L118.646 493.749ZM128.709 497.1C133.01 497.1 136.586 496.022 139.341 493.775L138.077 492.225C135.765 494.111 132.674 495.1 128.709 495.1V497.1ZM139.341 493.775C142.178 491.461 143.509 487.929 143.509 483.4H141.509C141.509 487.538 140.307 490.406 138.077 492.225L139.341 493.775ZM143.509 483.4V463.7H141.509V483.4H143.509ZM143.509 463.7C143.509 460.508 143.609 458.195 143.801 456.729L141.817 456.471C141.609 458.072 141.509 460.492 141.509 463.7H143.509ZM143.801 456.724C143.979 455.303 144.51 453.999 145.409 452.8L143.809 451.6C142.708 453.068 142.039 454.697 141.817 456.476L143.801 456.724ZM145.404 452.806C146.3 451.63 147.819 450.654 150.101 449.956L149.517 448.044C146.999 448.813 145.051 449.97 143.814 451.594L145.404 452.806ZM148.879 449.367L150.379 453.167L152.239 452.433L150.739 448.633L148.879 449.367ZM150.905 451.885C148.112 453.118 146.909 455.956 146.909 459.8H148.909C148.909 456.311 149.973 454.482 151.713 453.715L150.905 451.885ZM146.909 459.8V506.1H148.909V459.8H146.909ZM146.909 506.1C146.909 510.049 146.13 513.026 144.684 515.134L146.334 516.266C148.088 513.708 148.909 510.284 148.909 506.1H146.909ZM144.684 515.134C143.253 517.221 140.78 518.887 137.108 520.046L137.71 521.954C141.638 520.713 144.565 518.845 146.334 516.266L144.684 515.134ZM138.353 520.671L136.853 516.371L134.965 517.029L136.465 521.329L138.353 520.671ZM160.856 449.9V448.9H159.856V449.9H160.856ZM166.456 449.9L167.452 449.985L167.545 448.9H166.456V449.9ZM166.156 453.4L165.16 453.315L164.937 455.911L166.839 454.13L166.156 453.4ZM185.856 449.9L186.815 450.182L187.126 449.125L186.044 448.918L185.856 449.9ZM184.356 455L184.058 455.954L185.028 456.258L185.315 455.282L184.356 455ZM169.756 455.7L169.298 454.811L169.298 454.811L169.756 455.7ZM166.456 500V501H167.456V500H166.456ZM160.856 500H159.856V501H160.856V500ZM160.856 450.9H166.456V448.9H160.856V450.9ZM165.46 449.815L165.16 453.315L167.152 453.485L167.452 449.985L165.46 449.815ZM166.839 454.13C169.755 451.401 173.594 450 178.456 450V448C173.184 448 168.824 449.532 165.472 452.67L166.839 454.13ZM178.456 450C180.162 450 182.557 450.286 185.668 450.882L186.044 448.918C182.888 448.314 180.349 448 178.456 448V450ZM184.896 449.618L183.396 454.718L185.315 455.282L186.815 450.182L184.896 449.618ZM184.654 454.046C182.42 453.347 180.086 453 177.656 453V455C179.893 455 182.025 455.319 184.058 455.954L184.654 454.046ZM177.656 453C174.467 453 171.669 453.589 169.298 454.811L170.214 456.589C172.242 455.544 174.711 455 177.656 455V453ZM169.298 454.811C168.077 455.44 167.105 456.256 166.441 457.282C165.774 458.312 165.456 459.498 165.456 460.8H167.456C167.456 459.836 167.687 459.038 168.12 458.368C168.557 457.694 169.235 457.093 170.214 456.589L169.298 454.811ZM165.456 460.8V500H167.456V460.8H165.456ZM166.456 499H160.856V501H166.456V499ZM161.856 500V449.9H159.856V500H161.856ZM194.22 434.7L193.48 435.373L193.512 435.408L193.547 435.44L194.22 434.7ZM194.22 430L194.927 430.707L194.927 430.707L194.22 430ZM198.92 430L198.177 430.669L198.212 430.708L198.251 430.743L198.92 430ZM198.92 434.7L198.213 433.993L198.213 433.993L198.92 434.7ZM193.72 449.9V448.9H192.72V449.9H193.72ZM199.32 449.9H200.32V448.9H199.32V449.9ZM199.32 500V501H200.32V500H199.32ZM193.72 500H192.72V501H193.72V500ZM196.62 434.7C196.038 434.7 195.47 434.485 194.893 433.96L193.547 435.44C194.436 436.248 195.469 436.7 196.62 436.7V434.7ZM194.96 434.027C194.435 433.45 194.22 432.882 194.22 432.3H192.22C192.22 433.451 192.672 434.484 193.48 435.373L194.96 434.027ZM194.22 432.3C194.22 431.723 194.43 431.204 194.927 430.707L193.513 429.293C192.677 430.129 192.22 431.143 192.22 432.3H194.22ZM194.927 430.707C195.408 430.226 195.955 430 196.62 430V428C195.418 428 194.365 428.441 193.513 429.293L194.927 430.707ZM196.62 430C197.283 430 197.775 430.223 198.177 430.669L199.663 429.331C198.865 428.444 197.824 428 196.62 428V430ZM198.251 430.743C198.697 431.145 198.92 431.637 198.92 432.3H200.92C200.92 431.096 200.476 430.055 199.589 429.257L198.251 430.743ZM198.92 432.3C198.92 432.965 198.694 433.512 198.213 433.993L199.627 435.407C200.479 434.555 200.92 433.502 200.92 432.3H198.92ZM198.213 433.993C197.716 434.49 197.197 434.7 196.62 434.7V436.7C197.776 436.7 198.791 436.243 199.627 435.407L198.213 433.993ZM193.72 450.9H199.32V448.9H193.72V450.9ZM198.32 449.9V500H200.32V449.9H198.32ZM199.32 499H193.72V501H199.32V499ZM194.72 500V449.9H192.72V500H194.72ZM216.781 487.3L217.772 487.168L217.656 486.3H216.781V487.3ZM221.281 494.1L220.773 494.961L220.781 494.966L220.79 494.971L221.281 494.1ZM238.181 494.3L238.656 495.18L238.665 495.175L238.674 495.17L238.181 494.3ZM240.081 482.7L239.319 483.348L239.336 483.368L239.355 483.388L240.081 482.7ZM235.781 479.5L236.2 478.592L236.2 478.592L235.781 479.5ZM228.781 476.9L228.47 477.851L228.478 477.853L228.781 476.9ZM215.381 470L214.632 470.663L214.638 470.67L214.645 470.677L215.381 470ZM212.681 463.5L211.684 463.583L211.685 463.593L211.686 463.602L212.681 463.5ZM212.581 462.3H211.581V462.342L211.584 462.383L212.581 462.3ZM214.381 455.9L213.521 455.389L213.516 455.398L214.381 455.9ZM220.081 450.7L219.625 449.81L219.615 449.815L220.081 450.7ZM235.381 449.4L235.101 450.36L235.124 450.367L235.147 450.372L235.381 449.4ZM239.281 450.7L239.728 449.806L239.728 449.806L239.281 450.7ZM240.981 451.6L241.905 451.982L242.218 451.223L241.536 450.768L240.981 451.6ZM239.081 456.2L238.526 457.032L239.54 457.708L240.005 456.582L239.081 456.2ZM237.581 455.4L237.102 456.278L237.118 456.286L237.134 456.294L237.581 455.4ZM234.381 454.2L234.656 453.238L234.656 453.238L234.381 454.2ZM221.581 455.9L222.124 456.74L222.133 456.734L222.141 456.728L221.581 455.9ZM221.281 467.9L220.739 468.74L220.739 468.74L221.281 467.9ZM230.781 471.9L231.097 470.951L231.088 470.948L231.079 470.946L230.781 471.9ZM239.481 475.3L239.045 476.2L239.045 476.2L239.481 475.3ZM245.081 479.9L244.287 480.508L244.299 480.523L244.31 480.538L245.081 479.9ZM242.981 497.5L242.316 496.753L242.308 496.76L242.981 497.5ZM220.081 499.6L219.642 500.499L219.655 500.505L219.669 500.511L220.081 499.6ZM213.781 494.4L212.945 494.949L212.951 494.958L212.957 494.967L213.781 494.4ZM211.481 487.3V486.3H210.428L210.482 487.351L211.481 487.3ZM215.79 487.432C216.23 490.736 217.908 493.272 220.773 494.961L221.789 493.239C219.454 491.862 218.132 489.864 217.772 487.168L215.79 487.432ZM220.79 494.971C223.55 496.528 226.622 497.3 229.981 497.3V495.3C226.94 495.3 224.211 494.605 221.772 493.229L220.79 494.971ZM229.981 497.3C233.135 497.3 236.033 496.597 238.656 495.18L237.705 493.42C235.395 494.669 232.827 495.3 229.981 495.3V497.3ZM238.674 495.17C241.484 493.575 242.881 490.991 242.881 487.6H240.881C240.881 490.343 239.811 492.225 237.687 493.43L238.674 495.17ZM242.881 487.6C242.881 485.384 242.209 483.492 240.807 482.012L239.355 483.388C240.353 484.441 240.881 485.816 240.881 487.6H242.881ZM240.843 482.052C239.607 480.599 238.053 479.447 236.2 478.592L235.362 480.408C236.975 481.153 238.288 482.135 239.319 483.348L240.843 482.052ZM236.2 478.592C234.413 477.767 232.036 476.886 229.084 475.947L228.478 477.853C231.392 478.78 233.682 479.633 235.362 480.408L236.2 478.592ZM229.091 475.949C225.843 474.889 223.214 473.902 221.192 472.989L220.369 474.811C222.481 475.765 225.185 476.778 228.47 477.851L229.091 475.949ZM221.192 472.989C219.248 472.111 217.559 470.89 216.117 469.323L214.645 470.677C216.27 472.443 218.18 473.823 220.369 474.811L221.192 472.989ZM216.13 469.337C214.753 467.781 213.924 465.818 213.676 463.398L211.686 463.602C211.971 466.382 212.942 468.753 214.632 470.663L216.13 469.337ZM213.677 463.417L213.577 462.217L211.584 462.383L211.684 463.583L213.677 463.417ZM213.581 462.3C213.581 460.291 214.126 458.33 215.246 456.402L213.516 455.398C212.235 457.603 211.581 459.909 211.581 462.3H213.581ZM215.241 456.411C216.399 454.459 218.151 452.846 220.547 451.585L219.615 449.815C216.944 451.221 214.896 453.074 213.521 455.389L215.241 456.411ZM220.537 451.59C222.958 450.348 226.024 449.7 229.781 449.7V447.7C225.805 447.7 222.404 448.385 219.625 449.81L220.537 451.59ZM229.781 449.7C231.845 449.7 233.613 449.926 235.101 450.36L235.661 448.44C233.949 447.941 231.984 447.7 229.781 447.7V449.7ZM235.147 450.372C236.781 450.764 237.998 451.176 238.834 451.594L239.728 449.806C238.697 449.29 237.314 448.836 235.614 448.428L235.147 450.372ZM238.834 451.594C239.791 452.073 240.29 452.342 240.426 452.432L241.536 450.768C241.271 450.592 240.637 450.26 239.728 449.806L238.834 451.594ZM240.057 451.218L238.157 455.818L240.005 456.582L241.905 451.982L240.057 451.218ZM239.636 455.368C239.373 455.193 238.81 454.897 238.028 454.506L237.134 456.294C237.952 456.703 238.389 456.941 238.526 457.032L239.636 455.368ZM238.06 454.522C237.231 454.07 236.082 453.646 234.656 453.238L234.106 455.162C235.479 455.554 236.464 455.93 237.102 456.278L238.06 454.522ZM234.656 453.238C233.154 452.81 231.527 452.6 229.781 452.6V454.6C231.368 454.6 232.807 454.79 234.106 455.162L234.656 453.238ZM229.781 452.6C226.416 452.6 223.479 453.409 221.021 455.072L222.141 456.728C224.216 455.325 226.746 454.6 229.781 454.6V452.6ZM221.038 455.06C218.49 456.709 217.181 459.089 217.181 462.1H219.181C219.181 459.778 220.138 458.025 222.124 456.74L221.038 455.06ZM217.181 462.1C217.181 464.961 218.376 467.216 220.739 468.74L221.823 467.06C220.052 465.917 219.181 464.306 219.181 462.1H217.181ZM220.739 468.74C222.919 470.147 226.188 471.512 230.483 472.854L231.079 470.946C226.841 469.621 223.776 468.32 221.823 467.06L220.739 468.74ZM230.465 472.849C234.043 474.042 236.899 475.159 239.045 476.2L239.917 474.4C237.663 473.307 234.718 472.158 231.097 470.951L230.465 472.849ZM239.045 476.2C241.1 477.196 242.846 478.628 244.287 480.508L245.874 479.292C244.249 477.172 242.262 475.537 239.917 474.4L239.045 476.2ZM244.31 480.538C245.728 482.251 246.481 484.54 246.481 487.5H248.481C248.481 484.193 247.634 481.416 245.851 479.262L244.31 480.538ZM246.481 487.5C246.481 491.213 245.104 494.275 242.316 496.753L243.645 498.247C246.858 495.392 248.481 491.787 248.481 487.5H246.481ZM242.308 496.76C239.627 499.198 235.575 500.5 229.981 500.5V502.5C235.853 502.5 240.468 501.135 243.654 498.24L242.308 496.76ZM229.981 500.5C226.29 500.5 223.137 499.885 220.493 498.689L219.669 500.511C222.625 501.849 226.071 502.5 229.981 502.5V500.5ZM220.519 498.701C217.914 497.43 215.958 495.802 214.605 493.833L212.957 494.967C214.537 497.265 216.781 499.103 219.642 500.499L220.519 498.701ZM214.617 493.851C213.316 491.87 212.604 489.675 212.48 487.249L210.482 487.351C210.624 490.125 211.445 492.664 212.945 494.949L214.617 493.851ZM211.481 488.3H216.781V486.3H211.481V488.3ZM320.979 500L321.081 500.995L321.979 500.903V500H320.979ZM288.679 497.2L289.212 496.354L288.679 497.2ZM289.379 461.5L289.821 462.397L289.829 462.393L289.837 462.389L289.379 461.5ZM307.279 461.4L306.963 462.349L306.972 462.352L306.981 462.354L307.279 461.4ZM315.379 465.4L314.775 466.197L316.379 467.412V465.4H315.379ZM312.179 456.7L311.461 457.396L311.467 457.402L311.472 457.407L312.179 456.7ZM299.879 453.4L298.882 453.33L298.807 454.4H299.879V453.4ZM300.179 449.1V448.1H299.247L299.182 449.03L300.179 449.1ZM314.279 452.2L313.712 453.024L313.722 453.031L313.733 453.038L314.279 452.2ZM319.879 459.4L318.906 459.632L318.909 459.643L318.912 459.653L319.879 459.4ZM315.379 469.7H316.379V469.061L315.8 468.793L315.379 469.7ZM306.579 466.4L306.288 467.357L306.294 467.358L306.579 466.4ZM292.479 493.3L291.925 494.132L291.931 494.136L291.938 494.141L292.479 493.3ZM315.379 495.4L315.516 496.391L316.379 496.272V495.4H315.379ZM320.878 499.005C313.681 499.738 308.524 500.1 305.379 500.1V502.1C308.634 502.1 313.878 501.728 321.081 500.995L320.878 499.005ZM305.379 500.1C298.49 500.1 293.131 498.819 289.212 496.354L288.147 498.046C292.495 500.781 298.268 502.1 305.379 502.1V500.1ZM289.212 496.354C285.476 494.004 283.479 489.705 283.479 483.1H281.479C281.479 490.095 283.616 495.196 288.147 498.046L289.212 496.354ZM283.479 483.1V474.8H281.479V483.1H283.479ZM283.479 474.8C283.479 468.451 285.666 464.445 289.821 462.397L288.937 460.603C283.893 463.089 281.479 467.949 281.479 474.8H283.479ZM289.837 462.389C291.853 461.351 294.482 460.8 297.779 460.8V458.8C294.276 458.8 291.306 459.383 288.921 460.611L289.837 462.389ZM297.779 460.8C300.797 460.8 303.857 461.313 306.963 462.349L307.596 460.451C304.301 459.353 301.028 458.8 297.779 458.8V460.8ZM306.981 462.354C310.094 463.327 312.685 464.613 314.775 466.197L315.983 464.603C313.674 462.853 310.865 461.473 307.578 460.446L306.981 462.354ZM316.379 465.4C316.379 461.529 315.246 458.353 312.886 455.993L311.472 457.407C313.379 459.314 314.379 461.938 314.379 465.4H316.379ZM312.897 456.004C310.459 453.49 305.984 452.4 299.879 452.4V454.4C305.908 454.4 309.633 455.51 311.461 457.396L312.897 456.004ZM300.877 453.47L301.177 449.17L299.182 449.03L298.882 453.33L300.877 453.47ZM300.179 450.1C306.512 450.1 310.963 451.13 313.712 453.024L314.847 451.376C311.595 449.137 306.647 448.1 300.179 448.1V450.1ZM313.733 453.038C316.646 454.937 318.314 457.143 318.906 459.632L320.852 459.168C320.111 456.057 318.046 453.463 314.826 451.362L313.733 453.038ZM318.912 459.653C319.615 462.34 319.979 465.846 319.979 470.2H321.979C321.979 465.754 321.61 462.06 320.847 459.147L318.912 459.653ZM319.979 470.2V500H321.979V470.2H319.979ZM315.8 468.793C313.019 467.504 310.04 466.388 306.865 465.442L306.294 467.358C309.385 468.279 312.273 469.363 314.959 470.607L315.8 468.793ZM306.87 465.443C303.73 464.488 300.798 464 298.079 464V466C300.561 466 303.295 466.446 306.288 467.357L306.87 465.443ZM298.079 464C294.558 464 291.734 464.881 289.797 466.818C287.86 468.755 286.979 471.579 286.979 475.1H288.979C288.979 471.887 289.782 469.662 291.211 468.232C292.641 466.802 294.867 466 298.079 466V464ZM286.979 475.1V483.8H288.979V475.1H286.979ZM286.979 483.8C286.979 488.39 288.588 491.907 291.925 494.132L293.034 492.468C290.371 490.693 288.979 487.876 288.979 483.8H286.979ZM291.938 494.141C295.165 496.221 299.651 497.2 305.279 497.2V495.2C299.841 495.2 295.793 494.246 293.021 492.459L291.938 494.141ZM305.279 497.2C308.205 497.2 311.619 496.928 315.516 496.391L315.243 494.409C311.406 494.939 308.087 495.2 305.279 495.2V497.2ZM316.379 495.4V469.7H314.379V495.4H316.379ZM327.595 449.9V448.9H326.595V449.9H327.595ZM333.195 449.9L334.19 449.998L334.298 448.9H333.195V449.9ZM332.695 455L331.7 454.902L331.411 457.846L333.427 455.681L332.695 455ZM338.995 450.6L338.619 449.673L338.61 449.677L338.995 450.6ZM360.395 454.5L359.647 455.164L359.654 455.172L360.395 454.5ZM360.195 496.4L360.88 497.128L360.888 497.121L360.195 496.4ZM339.095 500L338.753 500.94L338.753 500.94L339.095 500ZM333.195 495.8L333.951 495.145L332.195 493.119V495.8H333.195ZM333.195 518.8L333.561 519.731L334.195 519.482V518.8H333.195ZM327.595 521H326.595V522.467L327.961 521.931L327.595 521ZM355.795 457.5L355.139 458.255L355.149 458.263L355.795 457.5ZM337.395 457.5L338.029 458.273L338.035 458.268L338.041 458.263L337.395 457.5ZM333.195 467.6L332.196 467.557L332.195 467.578V467.6H333.195ZM336.895 493L336.253 493.767L336.253 493.767L336.895 493ZM355.895 492.9L356.549 493.656L356.551 493.655L355.895 492.9ZM327.595 450.9H333.195V448.9H327.595V450.9ZM332.2 449.802L331.7 454.902L333.69 455.098L334.19 449.998L332.2 449.802ZM333.427 455.681C335.131 453.851 337.113 452.467 339.38 451.523L338.61 449.677C336.076 450.733 333.859 452.283 331.963 454.319L333.427 455.681ZM339.371 451.527C341.731 450.57 344.037 450.1 346.295 450.1V448.1C343.753 448.1 341.192 448.63 338.619 449.673L339.371 451.527ZM346.295 450.1C352.297 450.1 356.689 451.835 359.648 455.164L361.142 453.836C357.701 449.965 352.693 448.1 346.295 448.1V450.1ZM359.654 455.172C362.725 458.556 364.295 462.968 364.295 468.5H366.295C366.295 462.565 364.598 457.644 361.135 453.828L359.654 455.172ZM364.295 468.5V482.4H366.295V468.5H364.295ZM364.295 482.4C364.295 488.277 362.654 492.651 359.502 495.679L360.888 497.121C364.536 493.616 366.295 488.657 366.295 482.4H364.295ZM359.51 495.672C356.331 498.663 352.094 500.2 346.695 500.2V502.2C352.496 502.2 357.259 500.537 360.88 497.128L359.51 495.672ZM346.695 500.2C343.92 500.2 341.506 499.813 339.437 499.06L338.753 500.94C341.084 501.787 343.737 502.2 346.695 502.2V500.2ZM339.437 499.06C337.417 498.326 335.587 497.033 333.951 495.145L332.439 496.455C334.269 498.567 336.373 500.074 338.753 500.94L339.437 499.06ZM332.195 495.8V518.8H334.195V495.8H332.195ZM332.829 517.869L327.229 520.069L327.961 521.931L333.561 519.731L332.829 517.869ZM328.595 521V449.9H326.595V521H328.595ZM360.695 468.1C360.695 463.07 359.349 459.197 356.441 456.737L355.149 458.263C357.441 460.203 358.695 463.397 358.695 468.1H360.695ZM356.451 456.745C353.725 454.378 350.455 453.2 346.695 453.2V455.2C350.001 455.2 352.798 456.222 355.139 458.255L356.451 456.745ZM346.695 453.2C342.873 453.2 339.54 454.375 336.749 456.737L338.041 458.263C340.449 456.225 343.317 455.2 346.695 455.2V453.2ZM336.761 456.727C333.869 459.1 332.403 462.782 332.196 467.557L334.194 467.643C334.386 463.218 335.721 460.167 338.029 458.273L336.761 456.727ZM332.195 467.6V483.4H334.195V467.6H332.195ZM332.195 483.4C332.195 487.921 333.487 491.45 336.253 493.767L337.537 492.233C335.369 490.417 334.195 487.546 334.195 483.4H332.195ZM336.253 493.767C338.943 496.02 342.457 497.1 346.695 497.1V495.1C342.8 495.1 339.78 494.113 337.537 492.233L336.253 493.767ZM346.695 497.1C350.57 497.1 353.878 495.967 356.549 493.656L355.241 492.144C352.979 494.1 350.153 495.1 346.695 495.1V497.1ZM356.551 493.655C359.352 491.222 360.695 487.75 360.695 483.4H358.695C358.695 487.317 357.504 490.178 355.239 492.145L356.551 493.655ZM360.695 483.4V468.1H358.695V483.4H360.695ZM410.823 500L410.924 500.995L411.823 500.903V500H410.823ZM378.523 497.2L379.055 496.354L378.523 497.2ZM379.223 461.5L379.665 462.397L379.673 462.393L379.681 462.389L379.223 461.5ZM397.123 461.4L396.807 462.349L396.816 462.352L396.825 462.354L397.123 461.4ZM405.223 465.4L404.619 466.197L406.223 467.412V465.4H405.223ZM402.023 456.7L401.305 457.396L401.311 457.402L401.316 457.407L402.023 456.7ZM389.723 453.4L388.725 453.33L388.651 454.4H389.723V453.4ZM390.023 449.1V448.1H389.09L389.025 449.03L390.023 449.1ZM404.123 452.2L403.556 453.024L403.566 453.031L403.577 453.038L404.123 452.2ZM409.723 459.4L408.75 459.632L408.753 459.643L408.756 459.653L409.723 459.4ZM405.223 469.7H406.223V469.061L405.644 468.793L405.223 469.7ZM396.423 466.4L396.132 467.357L396.138 467.358L396.423 466.4ZM382.323 493.3L381.768 494.132L381.775 494.136L381.781 494.141L382.323 493.3ZM405.223 495.4L405.36 496.391L406.223 496.272V495.4H405.223ZM410.722 499.005C403.524 499.738 398.368 500.1 395.223 500.1V502.1C398.478 502.1 403.722 501.728 410.924 500.995L410.722 499.005ZM395.223 500.1C388.334 500.1 382.974 498.819 379.055 496.354L377.991 498.046C382.338 500.781 388.112 502.1 395.223 502.1V500.1ZM379.055 496.354C375.32 494.004 373.323 489.705 373.323 483.1H371.323C371.323 490.095 373.459 495.196 377.991 498.046L379.055 496.354ZM373.323 483.1V474.8H371.323V483.1H373.323ZM373.323 474.8C373.323 468.451 375.509 464.445 379.665 462.397L378.781 460.603C373.737 463.089 371.323 467.949 371.323 474.8H373.323ZM379.681 462.389C381.697 461.351 384.326 460.8 387.623 460.8V458.8C384.12 458.8 381.15 459.383 378.765 460.611L379.681 462.389ZM387.623 460.8C390.641 460.8 393.701 461.313 396.807 462.349L397.439 460.451C394.145 459.353 390.872 458.8 387.623 458.8V460.8ZM396.825 462.354C399.937 463.327 402.529 464.613 404.619 466.197L405.827 464.603C403.518 462.853 400.709 461.473 397.421 460.446L396.825 462.354ZM406.223 465.4C406.223 461.529 405.09 458.353 402.73 455.993L401.316 457.407C403.223 459.314 404.223 461.938 404.223 465.4H406.223ZM402.741 456.004C400.303 453.49 395.828 452.4 389.723 452.4V454.4C395.751 454.4 399.476 455.51 401.305 457.396L402.741 456.004ZM390.721 453.47L391.021 449.17L389.025 449.03L388.725 453.33L390.721 453.47ZM390.023 450.1C396.356 450.1 400.807 451.13 403.556 453.024L404.69 451.376C401.439 449.137 396.491 448.1 390.023 448.1V450.1ZM403.577 453.038C406.49 454.937 408.158 457.143 408.75 459.632L410.696 459.168C409.955 456.057 407.89 453.463 404.669 451.362L403.577 453.038ZM408.756 459.653C409.459 462.34 409.823 465.846 409.823 470.2H411.823C411.823 465.754 411.454 462.06 410.69 459.147L408.756 459.653ZM409.823 470.2V500H411.823V470.2H409.823ZM405.644 468.793C402.863 467.504 399.884 466.388 396.709 465.442L396.138 467.358C399.229 468.279 402.116 469.363 404.803 470.607L405.644 468.793ZM396.714 465.443C393.574 464.488 390.642 464 387.923 464V466C390.405 466 393.139 466.446 396.132 467.357L396.714 465.443ZM387.923 464C384.402 464 381.578 464.881 379.641 466.818C377.704 468.755 376.823 471.579 376.823 475.1H378.823C378.823 471.887 379.626 469.662 381.055 468.232C382.485 466.802 384.711 466 387.923 466V464ZM376.823 475.1V483.8H378.823V475.1H376.823ZM376.823 483.8C376.823 488.39 378.431 491.907 381.768 494.132L382.878 492.468C380.215 490.693 378.823 487.876 378.823 483.8H376.823ZM381.781 494.141C385.009 496.221 389.495 497.2 395.123 497.2V495.2C389.684 495.2 385.637 494.246 382.865 492.459L381.781 494.141ZM395.123 497.2C398.048 497.2 401.463 496.928 405.36 496.391L405.086 494.409C401.25 494.939 397.931 495.2 395.123 495.2V497.2ZM406.223 495.4V469.7H404.223V495.4H406.223ZM420.524 449.9V448.9H419.524V449.9H420.524ZM426.124 449.9L427.12 449.985L427.213 448.9H426.124V449.9ZM425.824 453.4L424.827 453.315L424.605 455.911L426.507 454.13L425.824 453.4ZM445.524 449.9L446.483 450.182L446.794 449.125L445.712 448.918L445.524 449.9ZM444.024 455L443.726 455.954L444.696 456.258L444.983 455.282L444.024 455ZM429.424 455.7L428.966 454.811L428.966 454.811L429.424 455.7ZM426.124 500V501H427.124V500H426.124ZM420.524 500H419.524V501H420.524V500ZM420.524 450.9H426.124V448.9H420.524V450.9ZM425.127 449.815L424.827 453.315L426.82 453.485L427.12 449.985L425.127 449.815ZM426.507 454.13C429.423 451.401 433.262 450 438.124 450V448C432.852 448 428.492 449.532 425.14 452.67L426.507 454.13ZM438.124 450C439.83 450 442.225 450.286 445.336 450.882L445.712 448.918C442.556 448.314 440.017 448 438.124 448V450ZM444.564 449.618L443.064 454.718L444.983 455.282L446.483 450.182L444.564 449.618ZM444.322 454.046C442.088 453.347 439.754 453 437.324 453V455C439.56 455 441.693 455.319 443.726 455.954L444.322 454.046ZM437.324 453C434.135 453 431.337 453.589 428.966 454.811L429.882 456.589C431.91 455.544 434.379 455 437.324 455V453ZM428.966 454.811C427.745 455.44 426.773 456.256 426.109 457.282C425.442 458.312 425.124 459.498 425.124 460.8H427.124C427.124 459.836 427.355 459.038 427.788 458.368C428.225 457.694 428.903 457.093 429.882 456.589L428.966 454.811ZM425.124 460.8V500H427.124V460.8H425.124ZM426.124 499H420.524V501H426.124V499ZM421.524 500V449.9H419.524V500H421.524ZM461.553 501.3L461.278 502.262L462.167 502.516L462.49 501.649L461.553 501.3ZM453.453 496.2L454.266 495.619L454.266 495.619L453.453 496.2ZM450.953 430V429H449.953V430H450.953ZM456.553 430H457.553V429H456.553V430ZM456.553 449.9H455.553V450.9H456.553V449.9ZM468.553 449.9L469.464 450.313L470.103 448.9H468.553V449.9ZM466.153 455.2V456.2H466.798L467.064 455.613L466.153 455.2ZM456.553 455.2V454.2H455.553V455.2H456.553ZM463.153 497L464.09 497.349L464.451 496.379L463.469 496.051L463.153 497ZM461.827 500.338C458.235 499.312 455.762 497.712 454.266 495.619L452.639 496.781C454.477 499.354 457.404 501.155 461.278 502.262L461.827 500.338ZM454.266 495.619C452.759 493.508 451.953 490.601 451.953 486.8H449.953C449.953 490.866 450.814 494.226 452.639 496.781L454.266 495.619ZM451.953 486.8V430H449.953V486.8H451.953ZM450.953 431H456.553V429H450.953V431ZM455.553 430V449.9H457.553V430H455.553ZM456.553 450.9H468.553V448.9H456.553V450.9ZM467.642 449.487L465.242 454.787L467.064 455.613L469.464 450.313L467.642 449.487ZM466.153 454.2H456.553V456.2H466.153V454.2ZM455.553 455.2V486.8H457.553V455.2H455.553ZM455.553 486.8C455.553 489.599 456.13 491.988 457.363 493.893C458.604 495.811 460.454 497.155 462.837 497.949L463.469 496.051C461.451 495.379 460.001 494.289 459.042 492.807C458.075 491.312 457.553 489.334 457.553 486.8H455.553ZM462.216 496.651L460.616 500.951L462.49 501.649L464.09 497.349L462.216 496.651Z" fill="black"/>
</g>
<defs>
<filter id="filter0_d_4_12" x="0" y="35" width="520" height="520" filterUnits="userSpaceOnUse" color-interpolation-filters="sRGB">
<feFlood flood-opacity="0" result="BackgroundImageFix"/>
<feColorMatrix in="SourceAlpha" type="matrix" values="0 0 0 0 0 0 0 0 0 0 0 0 0 0 0 0 0 0 127 0" result="hardAlpha"/>
<feOffset dy="4"/>
<feGaussianBlur stdDeviation="2"/>
<feComposite in2="hardAlpha" operator="out"/>
<feColorMatrix type="matrix" values="0 0 0 0 0 0 0 0 0 0 0 0 0 0 0 0 0 0 0.25 0"/>
<feBlend mode="normal" in2="BackgroundImageFix" result="effect1_dropShadow_4_12"/>
<feBlend mode="normal" in="SourceGraphic" in2="effect1_dropShadow_4_12" result="shape"/>
</filter>
<filter id="filter1_d_4_12" x="16" y="51" width="488" height="488" filterUnits="userSpaceOnUse" color-interpolation-filters="sRGB">
<feFlood flood-opacity="0" result="BackgroundImageFix"/>
<feColorMatrix in="SourceAlpha" type="matrix" values="0 0 0 0 0 0 0 0 0 0 0 0 0 0 0 0 0 0 127 0" result="hardAlpha"/>
<feOffset dy="4"/>
<feGaussianBlur stdDeviation="2"/>
<feComposite in2="hardAlpha" operator="out"/>
<feColorMatrix type="matrix" values="0 0 0 0 0 0 0 0 0 0 0 0 0 0 0 0 0 0 0.25 0"/>
<feBlend mode="normal" in2="BackgroundImageFix" result="effect1_dropShadow_4_12"/>
<feBlend mode="normal" in="SourceGraphic" in2="effect1_dropShadow_4_12" result="shape"/>
</filter>
<filter id="filter2_d_4_12" x="85.2734" y="91.0938" width="350.477" height="329.477" filterUnits="userSpaceOnUse" color-interpolation-filters="sRGB">
<feFlood flood-opacity="0" result="BackgroundImageFix"/>
<feColorMatrix in="SourceAlpha" type="matrix" values="0 0 0 0 0 0 0 0 0 0 0 0 0 0 0 0 0 0 127 0" result="hardAlpha"/>
<feOffset dy="10"/>
<feGaussianBlur stdDeviation="3"/>
<feComposite in2="hardAlpha" operator="out"/>
<feColorMatrix type="matrix" values="0 0 0 0 0 0 0 0 0 0 0 0 0 0 0 0 0 0 0.5 0"/>
<feBlend mode="normal" in2="BackgroundImageFix" result="effect1_dropShadow_4_12"/>
<feBlend mode="normal" in="SourceGraphic" in2="effect1_dropShadow_4_12" result="shape"/>
</filter>
<filter id="filter3_d_4_12" x="63.8309" y="429" width="408.722" height="100" filterUnits="userSpaceOnUse" color-interpolation-filters="sRGB">
<feFlood flood-opacity="0" result="BackgroundImageFix"/>
<feColorMatrix in="SourceAlpha" type="matrix" values="0 0 0 0 0 0 0 0 0 0 0 0 0 0 0 0 0 0 127 0" result="hardAlpha"/>
<feOffset dy="4"/>
<feGaussianBlur stdDeviation="2"/>
<feComposite in2="hardAlpha" operator="out"/>
<feColorMatrix type="matrix" values="0 0 0 0 0 0 0 0 0 0 0 0 0 0 0 0 0 0 0.25 0"/>
<feBlend mode="normal" in2="BackgroundImageFix" result="effect1_dropShadow_4_12"/>
<feBlend mode="normal" in="SourceGraphic" in2="effect1_dropShadow_4_12" result="shape"/>
</filter>
</defs>
</svg>
